<svg width="1877" height="1799" xmlns="http://www.w3.org/2000/svg" xmlns:xlink="http://www.w3.org/1999/xlink" overflow="hidden"><defs><clipPath id="clip0"><rect x="1066" y="200" width="1877" height="1799"/></clipPath></defs><g clip-path="url(#clip0)" transform="translate(-1066 -200)"><path d="M1723.09 301.294C1713.86 266.718 1761.38 234.876 1829.21 230.173 1856.7 228.267 1884.65 231.116 1908.58 238.264 1933.95 213.896 1993.22 204.635 2040.96 217.579 2049.31 219.842 2056.98 222.711 2063.71 226.096 2083.47 205.896 2131.58 197.69 2171.18 207.766 2182.14 210.555 2191.7 214.588 2199.13 219.556 2230.97 200.454 2287.23 198.094 2324.79 214.286 2340.58 221.091 2351.22 230.477 2354.89 240.835 2407.05 248.09 2437.83 275.572 2423.62 302.217 2422.43 304.457 2420.93 306.652 2419.14 308.786 2460.98 336.549 2450.73 376.343 2396.26 397.668 2379.31 404.306 2359.28 408.603 2338.11 410.146 2337.64 440.016 2289.72 464.036 2231.07 463.796 2211.48 463.716 2192.31 460.876 2175.69 455.591 2155.85 489.079 2086.66 508.007 2021.15 497.867 1993.69 493.618 1969.97 484.632 1954.02 472.441 1886.94 493.065 1799.88 481.971 1759.56 447.662 1759.05 447.229 1758.55 446.794 1758.06 446.356 1714.16 448.976 1674.39 433.007 1669.24 410.69 1666.49 398.795 1674.2 386.888 1690.3 378.144 1652.29 366.737 1639.52 341.699 1661.78 322.221 1674.62 310.983 1697.14 303.554 1722.42 302.219Z" stroke="#000000" stroke-width="4.58333" stroke-miterlimit="8" fill="#FFFFFF" fill-rule="evenodd"/><path d="M1737.65 382.467C1721.42 383.115 1705.19 381.202 1691.15 376.987M1778.67 442.431C1772.15 443.755 1765.31 444.637 1758.33 445.053M1953.98 471.244C1949.07 467.491 1944.96 463.48 1941.72 459.281M2180.66 441.413C2179.94 445.864 2178.3 450.264 2175.77 454.539M2277.99 360.309C2314.78 369.437 2338 388.522 2337.67 409.366M2418.76 308.059C2412.81 315.156 2403.71 321.453 2392.19 326.454M2354.99 239.804C2356.01 242.67 2356.48 245.579 2356.4 248.491M2185.27 229.67C2188.73 225.662 2193.32 221.93 2198.88 218.591M2057.93 234.95C2059.34 231.638 2061.56 228.428 2064.52 225.395M1908.49 238.195C1917.15 240.781 1925.16 243.894 1932.35 247.465M1727.26 311.049C1725.37 307.859 1723.97 304.598 1723.09 301.296" stroke="#000000" stroke-width="4.58333" stroke-miterlimit="8" fill="none" fill-rule="evenodd"/><text font-family="Calibri,Calibri_MSFontService,sans-serif" font-weight="400" font-size="83" transform="matrix(1 0 0 1 1858.51 371)">Webpage</text><rect x="1093.5" y="636.5" width="429" height="211" stroke="#000000" stroke-width="4.58333" stroke-miterlimit="8" fill="#FFFFFF"/><text font-family="Calibri,Calibri_MSFontService,sans-serif" font-weight="400" font-size="83" transform="matrix(1 0 0 1 1161.74 769)">Crawling</text><rect x="2467.5" y="740.5" width="429" height="212" stroke="#000000" stroke-width="4.58333" stroke-miterlimit="8" fill="#FFFFFF"/><text font-family="Calibri,Calibri_MSFontService,sans-serif" font-weight="400" font-size="83" transform="matrix(1 0 0 1 2578.27 873)">Query</text><rect x="1068.5" y="1091.5" width="479" height="212" stroke="#000000" stroke-width="4.58333" stroke-miterlimit="8" fill="#FFFFFF"/><text font-family="Calibri,Calibri_MSFontService,sans-serif" font-weight="400" font-size="83" transform="matrix(1 0 0 1 1139.97 1175)">Extracting <tspan font-size="83" x="35.7959" y="99">lemmas</tspan></text><rect x="2423.5" y="1390.5" width="517" height="173" stroke="#000000" stroke-width="4.58333" stroke-miterlimit="8" fill="#FFFFFF"/><text font-family="Calibri,Calibri_MSFontService,sans-serif" font-weight="400" font-size="83" transform="matrix(1 0 0 1 2548.2 1504)">Ranking</text><rect x="2467.5" y="1784.5" width="429" height="212" stroke="#000000" stroke-width="4.58333" stroke-miterlimit="8" fill="#FFFFFF"/><text font-family="Calibri,Calibri_MSFontService,sans-serif" font-weight="400" font-size="83" transform="matrix(1 0 0 1 2505.23 1918)">Evaluation</text><path d="M0-2.29167 347.96-2.29167 347.96 261.91 343.377 261.91 343.377 0 345.668 2.29167 0 2.29167ZM359.418 257.327 345.668 284.827 331.918 257.327Z" transform="matrix(-1 1.22465e-16 1.22465e-16 1 1654.17 351.5)"/><path d="M2443.5 349.208 2683.76 349.208 2683.76 717.734 2679.18 717.734 2679.18 351.5 2681.47 353.792 2443.5 353.792ZM2695.22 713.151 2681.47 740.651 2667.72 713.151Z"/><path d="M1310.79 847.5 1310.79 971.59 1308.5 971.59 1310.79 969.298 1310.79 1068.18 1306.21 1068.18 1306.21 967.006 1308.5 967.006 1306.21 969.298 1306.21 847.5ZM1322.25 1063.6 1308.5 1091.1 1294.75 1063.6Z"/><path d="M0-2.29167 176.156-2.29167 176.156 1092.32 171.573 1092.32 171.573 0 173.864 2.29167 0 2.29167ZM187.614 1087.74 173.864 1115.24 160.114 1087.74Z" transform="matrix(1.83697e-16 1 1 -1.83697e-16 1308.5 1303.5)"/><path d="M2683.79 952.5 2683.79 1174.01 2681.5 1174.01 2683.79 1171.72 2683.79 1368.03 2679.21 1368.03 2679.21 1169.43 2681.5 1169.43 2679.21 1171.72 2679.21 952.5ZM2695.25 1363.44 2681.5 1390.94 2667.75 1363.44Z"/><path d="M2683.79 1563.5 2683.79 1676.57 2681.5 1676.57 2683.79 1674.28 2683.79 1762.14 2679.21 1762.14 2679.21 1671.99 2681.5 1671.99 2679.21 1674.28 2679.21 1563.5ZM2695.25 1757.56 2681.5 1785.06 2667.75 1757.56Z"/></g></svg>